<svg id="katman_1" data-name="katman 1" xmlns="http://www.w3.org/2000/svg" viewBox="0 0 1017.33 739.4"><defs><style>.cls-1,.cls-4{font-size:50px;}.cls-1{font-family:OpenSans-Bold, Open Sans;font-weight:700;}.cls-2{letter-spacing:0.46em;}.cls-3{letter-spacing:-0.06em;}.cls-4,.cls-8{font-family:OpenSans-Regular, Open Sans;}.cls-5{letter-spacing:-0.01em;}.cls-6{letter-spacing:-0.08em;}.cls-7{letter-spacing:-0.02em;}.cls-8{font-size:29.15px;}.cls-9{letter-spacing:0.43em;}.cls-10{letter-spacing:-0.01em;}.cls-11{letter-spacing:0.16em;}.cls-12{letter-spacing:-0.1em;}.cls-13{letter-spacing:0.03em;}.cls-14{letter-spacing:0.07em;}.cls-15{letter-spacing:0.4em;}.cls-16{fill:none;stroke:#000;stroke-width:3px;}</style></defs><title>tyt_1_03</title><text class="cls-1" transform="translate(0 42.85)">Aşağıdaki seçeneklerin hangisinde atom </text><text class="cls-1" transform="translate(0 102.85)">ve iyonlar arası bağ türleri yanlış olarak </text><text class="cls-1" transform="translate(0 162.85)">verilmiştir?</text><text class="cls-1" transform="translate(0 264.85)"><tspan class="cls-2" xml:space="preserve">   </tspan><tspan x="107.96" y="0"> </tspan></text><text class="cls-1" transform="translate(144 264.85)">Madde</text><text class="cls-1" transform="translate(314.2 264.85)"><tspan class="cls-3"> </tspan><tspan class="cls-2" x="9.84" y="0" xml:space="preserve">      </tspan><tspan x="225.77" y="0"> </tspan></text><text class="cls-1" transform="translate(576 264.85)">Etkileşim sınıfı</text><text class="cls-4" transform="translate(0 354.85)">A) </text><text class="cls-4" transform="translate(59.45 354.85)"><tspan class="cls-5"> </tspan><tspan class="cls-2" x="12.59" y="0"> </tspan><tspan x="48.58" y="0"> </tspan></text><text class="cls-4" transform="translate(144 354.85)">BaO</text><text class="cls-4" transform="translate(243.15 354.85)"><tspan class="cls-6"> </tspan><tspan class="cls-2" x="8.89" y="0" xml:space="preserve">        </tspan><tspan x="296.79" y="0"> </tspan></text><text class="cls-4" transform="translate(576 354.85)"><tspan xml:space="preserve">   İyonik bağ    </tspan></text><text class="cls-4" transform="translate(0 444.85)">B) </text><text class="cls-4" transform="translate(60.2 444.85)"><tspan class="cls-7"> </tspan><tspan x="11.84" y="0"> </tspan></text><text class="cls-8" transform="translate(108 461.5)"><tspan xml:space="preserve">     </tspan></text><text class="cls-4" transform="translate(145.86 444.85)">Lehim</text><text class="cls-4" transform="translate(289.71 444.85)"><tspan class="cls-9"> </tspan><tspan class="cls-2" x="34.29" y="0" xml:space="preserve">       </tspan><tspan x="286.21" y="0"> </tspan></text><text class="cls-4" transform="translate(612.01 444.85)">İyonik bağ</text><text class="cls-4" transform="translate(0 534.85)">C) </text><text class="cls-4" transform="translate(59.35 534.85)"><tspan class="cls-10"> </tspan><tspan class="cls-2" x="12.69" y="0"> </tspan><tspan x="48.68" y="0"> </tspan></text><text class="cls-4" transform="translate(144 534.85)">Mg metali</text><text class="cls-4" transform="translate(374.85 534.85)"><tspan class="cls-11"> </tspan><tspan class="cls-2" x="21.14" y="0" xml:space="preserve">     </tspan><tspan x="201.08" y="0"> </tspan></text><text class="cls-4" transform="translate(612 534.85)">Metalik bağ</text><text class="cls-4" transform="translate(0 624.85)">D) </text><text class="cls-4" transform="translate(64.25 624.85)"><tspan class="cls-12"> </tspan><tspan class="cls-2" x="7.79" y="0"> </tspan><tspan x="43.78" y="0"> </tspan></text><text class="cls-4" transform="translate(144.01 624.85)">C</text><text class="cls-8" transform="translate(175.54 641.5)">(elmas)</text><text class="cls-4" transform="translate(273.75 624.85)"><tspan class="cls-13"> </tspan><tspan class="cls-2" x="14.24" y="0" xml:space="preserve">        </tspan><tspan x="302.14" y="0"> </tspan></text><text class="cls-4" transform="translate(612 624.85)">Kovalent bağ</text><text class="cls-4" transform="translate(0 714.85)">E) </text><text class="cls-4" transform="translate(55.6 714.85)"><tspan class="cls-14"> </tspan><tspan class="cls-2" x="16.39" y="0"> </tspan><tspan x="52.38" y="0"> </tspan></text><text class="cls-4" transform="translate(144.01 714.85)">BF</text><text class="cls-8" transform="translate(202.2 731.5)">3</text><text class="cls-4" transform="translate(218.87 714.85)"><tspan class="cls-15"> </tspan><tspan class="cls-2" x="33.09" y="0" xml:space="preserve">         </tspan><tspan x="356.98" y="0"> </tspan></text><text class="cls-4" transform="translate(612.02 714.85)">Kovalent bağ</text><line class="cls-16" x1="563.38" y1="289" x2="955.38" y2="289"/><line class="cls-16" x1="91.44" y1="287.5" x2="445.44" y2="287.5"/></svg>