<svg id="katman_1" data-name="katman 1" xmlns="http://www.w3.org/2000/svg" viewBox="0 0 1253.5 1255.4"><defs><style>.cls-1,.cls-21,.cls-4,.cls-7{font-size:50px;}.cls-1,.cls-2{font-family:OpenSans-Bold, Open Sans;font-weight:700;}.cls-2,.cls-8{font-size:29.15px;}.cls-3{letter-spacing:0.38em;}.cls-19,.cls-4,.cls-7,.cls-8{font-family:OpenSans-Regular, Open Sans;}.cls-5{letter-spacing:-0.08em;}.cls-6,.cls-7{letter-spacing:0.46em;}.cls-9{letter-spacing:0.1em;}.cls-10{letter-spacing:0.08em;}.cls-11{letter-spacing:0.04em;}.cls-12{letter-spacing:0.46em;}.cls-13{letter-spacing:0.08em;}.cls-14{letter-spacing:0.36em;}.cls-15,.cls-19{font-size:6px;}.cls-15{letter-spacing:0.46em;}.cls-16{letter-spacing:0.05em;}.cls-17{letter-spacing:0.29em;}.cls-18{letter-spacing:-0.15em;}.cls-20{letter-spacing:0.2em;}.cls-22{letter-spacing:-0.07em;}.cls-23{letter-spacing:0.22em;}.cls-24{letter-spacing:0em;}.cls-25{letter-spacing:0.18em;}.cls-26{letter-spacing:0.98em;}.cls-27{letter-spacing:0.46em;}.cls-28{letter-spacing:-0.01em;}.cls-29{letter-spacing:0.41em;}.cls-30{fill:none;stroke:#000;stroke-width:5px;}</style></defs><title>tyt_1_05</title><text class="cls-1" transform="translate(0 42.85)">Laboratuvarda KOH, H</text><text class="cls-2" transform="translate(561.69 59.5)">2</text><text class="cls-1" transform="translate(578.33 42.85)">SO</text><text class="cls-2" transform="translate(643.67 59.5)">4</text><text class="cls-1" transform="translate(660.31 42.85)"><tspan xml:space="preserve"> ve HCl çözeltileri ile </tspan></text><text class="cls-1" transform="translate(0 102.85)">deneyler gerçekleştiren bir grup öğrenci şu </text><text class="cls-1" transform="translate(1084 102.85)"><tspan class="cls-3"> </tspan><tspan x="31.99" y="0"> </tspan></text><text class="cls-1" transform="translate(0 162.85)">gözlemleri yapıyor;</text><text class="cls-4" transform="translate(0 258.85)">I.<tspan class="cls-5" x="27.25" y="0">	</tspan><tspan class="cls-6" x="36" y="0">	</tspan><tspan x="72" y="0">X</tspan></text><text class="cls-7" transform="translate(100.85 258.85)">	</text><text class="cls-4" transform="translate(113.85 258.85)">metali</text><text class="cls-7" transform="translate(259.15 258.85)">	</text><text class="cls-4" transform="translate(272.15 258.85)">yalnızca</text><text class="cls-7" transform="translate(456.15 258.85)">	</text><text class="cls-4" transform="translate(469.15 258.85)">H</text><text class="cls-8" transform="translate(506.01 275.5)">2</text><text class="cls-4" transform="translate(522.68 258.85)">SO</text><text class="cls-8" transform="translate(587.06 275.5)">4</text><text class="cls-4" transform="translate(603.73 258.85)"><tspan xml:space="preserve"> ile tepkime veriyor.</tspan></text><text class="cls-4" transform="translate(0 336.85)">II.</text><text class="cls-7" transform="translate(41.2 336.85)">	</text><text class="cls-4" transform="translate(54.2 336.85)"><tspan class="cls-9"> </tspan><tspan x="17.79" y="0">Y </tspan></text><text class="cls-7" transform="translate(100 336.85)">	</text><text class="cls-4" transform="translate(113 336.85)">metali</text><text class="cls-7" transform="translate(258.3 336.85)">	</text><text class="cls-4" transform="translate(271.3 336.85)">üç</text><text class="cls-7" transform="translate(325.8 336.85)">	</text><text class="cls-4" transform="translate(338.8 336.85)">çözeltiyle</text><text class="cls-7" transform="translate(553.1 336.85)">	</text><text class="cls-4" transform="translate(566.1 336.85)">de</text><text class="cls-7" transform="translate(624.8 336.85)">	</text><text class="cls-4" transform="translate(637.8 336.85)">tepkime</text><text class="cls-7" transform="translate(827.6 336.85)">	</text><text class="cls-4" transform="translate(840.6 336.85)">vererek</text><text class="cls-7" transform="translate(1016.85 336.85)">	</text><text class="cls-4" transform="translate(1029.85 336.85)">H</text><text class="cls-8" transform="translate(1066.65 353.5)">2</text><text class="cls-7" transform="translate(1083.32 336.85)">	</text><text class="cls-4" transform="translate(1096.32 336.85)">gazı</text><text class="cls-7" transform="translate(1187.57 336.85)">	</text><text class="cls-7" transform="translate(1200.57 336.85)">	</text><text class="cls-4" transform="translate(0 396.85)"><tspan class="cls-6" xml:space="preserve">		</tspan><tspan x="72" y="0">açığa</tspan></text><text class="cls-7" transform="translate(191.45 396.85)">	</text><text class="cls-4" transform="translate(204.45 396.85)">çıkarıyor.</text><text class="cls-4" transform="translate(0 474.85)">III.<tspan class="cls-10" x="55.13" y="0">	</tspan><tspan x="72" y="0">Z</tspan></text><text class="cls-7" transform="translate(100.55 474.85)">	</text><text class="cls-4" transform="translate(113.55 474.85)">metali</text><text class="cls-7" transform="translate(258.85 474.85)">	</text><text class="cls-4" transform="translate(271.85 474.85)">HCl</text><text class="cls-7" transform="translate(352.95 474.85)">	</text><text class="cls-4" transform="translate(365.95 474.85)">çözeltisine</text><text class="cls-7" transform="translate(609.6 474.85)">	</text><text class="cls-4" transform="translate(622.6 474.85)">atıldığında</text><text class="cls-7" transform="translate(865.85 474.85)">	</text><text class="cls-4" transform="translate(878.85 474.85)">açığa</text><text class="cls-7" transform="translate(998.3 474.85)">	</text><text class="cls-4" transform="translate(1011.3 474.85)">çıkan</text><text class="cls-7" transform="translate(1132.5 474.85)">	</text><text class="cls-7" transform="translate(1145.5 474.85)"><tspan xml:space="preserve">			</tspan></text><text class="cls-4" transform="translate(0 534.85)"><tspan class="cls-6" xml:space="preserve">		</tspan><tspan x="72" y="0">gaz</tspan></text><text class="cls-7" transform="translate(150.6 534.85)">	</text><text class="cls-4" transform="translate(163.6 534.85)">kireç</text><text class="cls-7" transform="translate(274.75 534.85)">	</text><text class="cls-4" transform="translate(287.75 534.85)">suyunda</text><text class="cls-7" transform="translate(487.35 534.85)">	</text><text class="cls-4" transform="translate(500.35 534.85)">bulanıklığa</text><text class="cls-7" transform="translate(752.25 534.85)">	</text><text class="cls-4" transform="translate(765.25 534.85)">neden</text><text class="cls-7" transform="translate(913.4 534.85)">	</text><text class="cls-4" transform="translate(926.4 534.85)">oluyor.</text><text class="cls-1" transform="translate(0 630.85)">X, Y ve Z maddeleri hangi seçenekte doğru </text><text class="cls-1" transform="translate(1065 630.85)"><tspan class="cls-11"> </tspan><tspan x="14.99" y="0"> </tspan></text><text class="cls-1" transform="translate(0 690.85)">verilmiştir?</text><text class="cls-1" transform="translate(0 792.85)"><tspan class="cls-12" xml:space="preserve">   </tspan><tspan x="107.96" y="0"> </tspan></text><text class="cls-1" transform="translate(144 792.85)"> </text><text class="cls-4" transform="translate(156.99 792.85)">X </text><text class="cls-4" transform="translate(198.84 792.85)"><tspan class="cls-13"> </tspan><tspan class="cls-12" x="17.14" y="0" xml:space="preserve">     </tspan><tspan x="197.08" y="0"> </tspan></text><text class="cls-4" transform="translate(432 792.85)"><tspan xml:space="preserve"> Y</tspan></text><text class="cls-4" transform="translate(472.99 792.85)"><tspan class="cls-14"> </tspan><tspan class="cls-12" x="30.99" y="0" xml:space="preserve">     </tspan><tspan x="210.93" y="0"> </tspan></text><text class="cls-4" transform="translate(720 792.85)"><tspan xml:space="preserve"> Z</tspan></text><text class="cls-4" transform="translate(0 870.85)">A)</text><text class="cls-7" transform="translate(46.45 870.85)">	</text><text class="cls-4" transform="translate(59.45 870.85)"><tspan class="cls-6" xml:space="preserve">		</tspan><tspan x="72" y="0">Hg</tspan></text><text class="cls-7" transform="translate(208.3 870.85)">	</text><text class="cls-4" transform="translate(221.3 870.85)"><tspan class="cls-6" xml:space="preserve">						</tspan><tspan class="cls-15" x="216" y="0"> </tspan><tspan x="220.32" y="0">Cr</tspan><tspan class="cls-16" x="272.27" y="0">	</tspan><tspan class="cls-6" x="288" y="0" xml:space="preserve">					</tspan><tspan x="468" y="0">CaCO</tspan></text><text class="cls-8" transform="translate(813.83 887.5)">3</text><text class="cls-4" transform="translate(0 960.85)">B)</text><text class="cls-7" transform="translate(47.2 960.85)">	</text><text class="cls-4" transform="translate(60.2 960.85)"><tspan class="cls-6" xml:space="preserve">		</tspan><tspan x="72" y="0">Al</tspan><tspan class="cls-17" x="116.29" y="0">	</tspan><tspan class="cls-6" x="144" y="0" xml:space="preserve">						</tspan></text><text class="cls-7" transform="translate(432.01 960.85)">	</text><text class="cls-4" transform="translate(445 960.85)">K<tspan class="cls-18" x="30.69" y="0">	</tspan><tspan class="cls-6" x="36" y="0" xml:space="preserve">					</tspan></text><text class="cls-7" transform="translate(684.01 960.85)">	</text><text class="cls-19" transform="translate(697 960.85)"><tspan class="cls-20" xml:space="preserve">          </tspan><tspan class="cls-21" x="27.59" y="0">Au</tspan></text><text class="cls-4" transform="translate(0 1050.85)">C)</text><text class="cls-7" transform="translate(46.35 1050.85)">	</text><text class="cls-4" transform="translate(59.35 1050.85)"><tspan class="cls-6" xml:space="preserve">		</tspan><tspan x="72" y="0">Au</tspan><tspan class="cls-22" x="134.33" y="0">	</tspan><tspan class="cls-6" x="144" y="0" xml:space="preserve">						</tspan><tspan class="cls-15" x="360" y="0" xml:space="preserve">     </tspan><tspan x="381.59" y="0">Cu</tspan><tspan class="cls-23" x="443.82" y="0">	</tspan><tspan class="cls-6" x="468" y="0" xml:space="preserve">					</tspan><tspan class="cls-15" x="648" y="0" xml:space="preserve">    </tspan><tspan x="665.27" y="0">Cr</tspan></text><text class="cls-4" transform="translate(0 1140.85)">D)</text><text class="cls-7" transform="translate(51.25 1140.85)">	</text><text class="cls-4" transform="translate(64.25 1140.85)"><tspan class="cls-6" xml:space="preserve">		</tspan><tspan x="72" y="0">Ag</tspan><tspan class="cls-24" x="131.03" y="0">	</tspan><tspan class="cls-6" x="144" y="0" xml:space="preserve">					</tspan><tspan class="cls-15" x="324" y="0" xml:space="preserve">    </tspan><tspan x="341.27" y="0">MgCO</tspan></text><text class="cls-8" transform="translate(539.02 1157.5)"><tspan xml:space="preserve"> 3 </tspan></text><text class="cls-8" transform="translate(563.27 1157.5)"><tspan class="cls-25" xml:space="preserve">  </tspan><tspan class="cls-26" x="25.46" y="0" xml:space="preserve">  </tspan><tspan x="97.45" y="0"> </tspan></text><text class="cls-8" transform="translate(684.01 1157.5)"><tspan xml:space="preserve">  </tspan></text><text class="cls-8" transform="translate(699.17 1157.5)"> </text><text class="cls-8" transform="translate(720.01 1157.5)"> </text><text class="cls-4" transform="translate(727.57 1140.85)">Pt</text><text class="cls-4" transform="translate(775.32 1140.85)"> </text><text class="cls-4" transform="translate(0 1230.85)">E)</text><text class="cls-7" transform="translate(42.6 1230.85)">	</text><text class="cls-7" transform="translate(55.6 1230.85)"><tspan xml:space="preserve">		</tspan></text><text class="cls-7" transform="translate(108 1230.85)">	</text><text class="cls-4" transform="translate(147 1230.85)">Ag <tspan class="cls-27" x="72.02" y="0">	</tspan><tspan class="cls-6" x="108" y="0" xml:space="preserve">			</tspan></text><text class="cls-7" transform="translate(324 1230.85)"><tspan xml:space="preserve">			</tspan></text><text class="cls-4" transform="translate(363 1230.85)"><tspan class="cls-6" xml:space="preserve">		</tspan><tspan x="72" y="0">Ca</tspan><tspan class="cls-28" x="131.35" y="0">	</tspan><tspan class="cls-6" x="144" y="0" xml:space="preserve">					</tspan><tspan x="324" y="0">CaCO</tspan></text><text class="cls-8" transform="translate(813.83 1247.5)">3</text><text class="cls-4" transform="translate(830.5 1230.85)"><tspan class="cls-29"> </tspan><tspan class="cls-12" x="33.49" y="0"> </tspan><tspan x="69.48" y="0"> </tspan></text><line class="cls-30" x1="101" y1="809.63" x2="248.75" y2="809.63"/><line class="cls-30" x1="389" y1="809.63" x2="536.75" y2="809.63"/><line class="cls-30" x1="677" y1="809.63" x2="824.75" y2="809.63"/></svg>