<svg id="katman_1" data-name="katman 1" xmlns="http://www.w3.org/2000/svg" viewBox="0 0 1201.02 794.4"><defs><style>.cls-1,.cls-3{font-size:50px;}.cls-1,.cls-2{font-family:OpenSans-Regular, Open Sans;}.cls-2{font-size:29.15px;}.cls-3{font-family:OpenSans-Bold, Open Sans;font-weight:700;}.cls-4{letter-spacing:-0.21em;}.cls-5{letter-spacing:-0.17em;}.cls-6{letter-spacing:0.46em;}</style></defs><title>tyt_1_06</title><text class="cls-1" transform="translate(0 42.85)">Eşit mol sayıda H</text><text class="cls-2" transform="translate(395.12 59.5)">2</text><text class="cls-1" transform="translate(411.78 42.85)">SO</text><text class="cls-2" transform="translate(478.17 59.5)">4</text><text class="cls-1" transform="translate(494.83 42.85)"><tspan xml:space="preserve"> ve KOH içeren sulu çözeltiler </tspan></text><text class="cls-1" transform="translate(0 102.85)">eşit hacimlerde alınarak karıştırılıyor.</text><text class="cls-3" transform="translate(0 198.85)">Bu tepkimeyle ilgili aşağıdaki ifadelerden </text><text class="cls-3" transform="translate(1041.39 198.85)"><tspan class="cls-4"> </tspan><tspan x="2.64" y="0"> </tspan></text><text class="cls-3" transform="translate(0 258.85)">hangisi yanlıştır?</text><text class="cls-1" transform="translate(0 360.85)">A) Oluşan çözelti mavi turnusol kağıdını kırmızıya </text><text class="cls-1" transform="translate(1147.6 360.85)"><tspan class="cls-5"> </tspan><tspan class="cls-6" x="4.44" y="0"> </tspan><tspan x="40.43" y="0"> </tspan></text><text class="cls-1" transform="translate(0 420.85)"><tspan xml:space="preserve">  </tspan></text><text class="cls-1" transform="translate(26 420.85)"> </text><text class="cls-1" transform="translate(36 420.85)"><tspan xml:space="preserve">  çevirir. </tspan></text><text class="cls-1" transform="translate(0 510.85)">B) Tepkime tamamlandığında ortam nötrdür.</text><path d="M64.8,596.1a19,19,0,0,0-8.11-1.9,11.65,11.65,0,0,0-9.29,3.92Q44,602,44,608.85q0,7,3.28,10.82t9.36,3.83a31.81,31.81,0,0,0,8.52-1.35v3.64A26.14,26.14,0,0,1,56,627.18q-7.89,0-12.17-4.78t-4.29-13.6a21.55,21.55,0,0,1,2.06-9.67,14.89,14.89,0,0,1,6-6.4,18.11,18.11,0,0,1,9.17-2.24,22.07,22.07,0,0,1,9.81,2L64.8,596.1Zm16,16.9A36.79,36.79,0,0,1,79,625a28.52,28.52,0,0,1-5.46,9.64h-3.9a35.29,35.29,0,0,0,5.2-10.19A37.24,37.24,0,0,0,76.59,613a38.53,38.53,0,0,0-1.77-11.6A34.47,34.47,0,0,0,69.54,591h3.95A29.84,29.84,0,0,1,79,600.92,37.88,37.88,0,0,1,80.84,613Zm47.8,13.69H123.9l-19.51-30h-.19c.26,3.51.39,6.74.39,9.67v20.28h-3.83V591h4.68l19.46,29.83h.2c0-.44-.11-1.85-.22-4.23s-.16-4.09-.12-5.12V591h3.88Zm32.3-13.4q0,6.54-3.29,10.22t-9.11,3.67a12.07,12.07,0,0,1-6.37-1.68,11.15,11.15,0,0,1-4.3-4.84,16.81,16.81,0,0,1-1.51-7.37q0-6.54,3.27-10.19t9.08-3.65a11.31,11.31,0,0,1,8.92,3.73Q160.95,606.92,160.94,613.29Zm-20.38,0q0,5.13,2.05,7.81a8.14,8.14,0,0,0,12.07,0c1.38-1.79,2.06-4.4,2.06-7.83s-.68-6-2.06-7.75a7.25,7.25,0,0,0-6.09-2.65,7.15,7.15,0,0,0-6,2.61Q140.55,608.11,140.56,613.29Zm1.19-20.61a2.1,2.1,0,0,1,2.2-2.39,2.44,2.44,0,0,1,1.6.56,2.82,2.82,0,0,1,0,3.65,2.32,2.32,0,0,1-1.6.6,2.2,2.2,0,0,1-1.55-.6A2.35,2.35,0,0,1,141.75,592.68Zm9.3,0a2.1,2.1,0,0,1,2.2-2.39,2.42,2.42,0,0,1,1.58.56,2.43,2.43,0,0,1-1.58,4.25,2.2,2.2,0,0,1-1.55-.6A2.35,2.35,0,0,1,151.05,592.68Zm25.64,31.16a13.79,13.79,0,0,0,2.07-.16,15.21,15.21,0,0,0,1.59-.33v3.1a7.12,7.12,0,0,1-1.94.52,14.33,14.33,0,0,1-2.31.21q-7.75,0-7.76-8.18V603.09h-3.83v-2l3.83-1.68,1.71-5.72h2.34v6.21h7.77v3.15h-7.77v15.74a5.39,5.39,0,0,0,1.15,3.71A4,4,0,0,0,176.69,623.84Zm21.21-24.39a16.24,16.24,0,0,1,3.2.29l-.56,3.76a14.11,14.11,0,0,0-2.93-.37,7.11,7.11,0,0,0-5.55,2.64,9.62,9.62,0,0,0-2.31,6.57v14.35H185.7V599.94H189l.47,4.95h.19a11.81,11.81,0,0,1,3.59-4A8.11,8.11,0,0,1,197.9,599.45Zm24.65,27.24-.8-3.8h-.2a11.19,11.19,0,0,1-4,3.4,12.24,12.24,0,0,1-5,.89,8.94,8.94,0,0,1-6.24-2,7.5,7.5,0,0,1-2.26-5.83q0-8.12,13-8.5l4.54-.15V609a6.74,6.74,0,0,0-1.36-4.65,5.56,5.56,0,0,0-4.33-1.5,17.64,17.64,0,0,0-7.57,2l-1.24-3.1a19,19,0,0,1,4.33-1.68,18.66,18.66,0,0,1,4.73-.61c3.19,0,5.55.7,7.09,2.12s2.3,3.69,2.3,6.81v18.26Zm-9.15-2.85a8.19,8.19,0,0,0,5.94-2.08A7.67,7.67,0,0,0,221.5,616v-2.42l-4.05.18c-3.22.11-5.55.61-7,1.5a4.51,4.51,0,0,0-2.14,4.14,4.19,4.19,0,0,0,1.33,3.34A5.51,5.51,0,0,0,213.4,623.84ZM238,626.69h-4v-38h4Zm12.65,0h-4v-38h4Zm19.9.49c-3.95,0-7.08-1.2-9.36-3.61s-3.43-5.75-3.43-10,1.06-7.73,3.18-10.27a10.6,10.6,0,0,1,8.56-3.81,10.08,10.08,0,0,1,8,3.31,12.67,12.67,0,0,1,2.93,8.72v2.57H261.91q.12,4.71,2.38,7.15a8.21,8.21,0,0,0,6.36,2.44,21.58,21.58,0,0,0,8.54-1.8v3.61a21.29,21.29,0,0,1-4.06,1.33A22.79,22.79,0,0,1,270.5,627.18Zm-1.1-24.34a6.62,6.62,0,0,0-5.14,2.1,9.68,9.68,0,0,0-2.25,5.81h14a9,9,0,0,0-1.7-5.87A6,6,0,0,0,269.4,602.84Zm35.11,16.55a6.74,6.74,0,0,1-2.78,5.77c-1.86,1.35-4.46,2-7.82,2-3.55,0-6.31-.56-8.3-1.68v-3.76a20.65,20.65,0,0,0,4.14,1.54,17.45,17.45,0,0,0,4.26.56,9.59,9.59,0,0,0,4.88-1,3.49,3.49,0,0,0,.36-5.76,21.58,21.58,0,0,0-5.29-2.62,28.93,28.93,0,0,1-5.31-2.43,7.19,7.19,0,0,1-2.34-2.36,6.18,6.18,0,0,1-.77-3.15,6,6,0,0,1,2.66-5.16,12.41,12.41,0,0,1,7.3-1.89,21.23,21.23,0,0,1,8.45,1.76l-1.44,3.29a19.35,19.35,0,0,0-7.3-1.66,8.45,8.45,0,0,0-4.35.9,2.8,2.8,0,0,0-1.46,2.49,3,3,0,0,0,.55,1.84,5.4,5.4,0,0,0,1.77,1.44,40,40,0,0,0,4.68,2c3.18,1.16,5.32,2.32,6.44,3.5A6.16,6.16,0,0,1,304.51,619.39ZM294.4,629.5c2.93.64,4.4,2,4.4,4.25a4.2,4.2,0,0,1-1.87,3.66,9.75,9.75,0,0,1-5.53,1.3,12.59,12.59,0,0,1-2.35-.22V635.9a14.78,14.78,0,0,0,2.54.19,6.74,6.74,0,0,0,2.92-.49,1.81,1.81,0,0,0,1-1.8,2,2,0,0,0-1-1.7,10.07,10.07,0,0,0-3.63-1.06l2.15-4.35h2.68l-1.34,2.81Zm50.8-2.81v-17.4a7.23,7.23,0,0,0-1.36-4.8,5.28,5.28,0,0,0-4.25-1.6c-2.52,0-4.39.72-5.59,2.17s-1.81,3.68-1.81,6.69v14.94h-4.05v-17.4a7.23,7.23,0,0,0-1.37-4.8,5.3,5.3,0,0,0-4.27-1.6q-3.81,0-5.58,2.28t-1.77,7.49v14h-4V599.94h3.29l.66,3.66h.2a7.92,7.92,0,0,1,3.23-3.05,9.8,9.8,0,0,1,4.68-1.1q6.27,0,8.2,4.54h.2a8.46,8.46,0,0,1,3.46-3.32,10.71,10.71,0,0,1,5.18-1.22c3,0,5.29.78,6.8,2.33s2.26,4,2.26,7.46v17.45Zm23.7.49q-5.92,0-9.36-3.61t-3.43-10q0-6.46,3.18-10.27a10.6,10.6,0,0,1,8.56-3.81,10.08,10.08,0,0,1,8,3.31,12.67,12.67,0,0,1,2.93,8.72v2.57H360.31q.12,4.71,2.38,7.15a8.21,8.21,0,0,0,6.36,2.44,21.58,21.58,0,0,0,8.54-1.8v3.61a21.29,21.29,0,0,1-4.06,1.33A22.79,22.79,0,0,1,368.9,627.18Zm-1.1-24.34a6.62,6.62,0,0,0-5.14,2.1,9.68,9.68,0,0,0-2.25,5.81h14a9,9,0,0,0-1.7-5.87A6,6,0,0,0,367.8,602.84Zm39.49,21a14,14,0,0,0,2.08-.16,15.51,15.51,0,0,0,1.58-.33v3.1A7.12,7.12,0,0,1,409,627a14.33,14.33,0,0,1-2.31.21q-7.76,0-7.76-8.18V603.09h-3.83v-2l3.83-1.68,1.71-5.72H403v6.21h7.77v3.15H403v15.74a5.44,5.44,0,0,0,1.15,3.71A4,4,0,0,0,407.29,623.84Zm20.31,3.34c-4,0-7.08-1.2-9.36-3.61s-3.43-5.75-3.43-10,1.06-7.73,3.18-10.27a10.6,10.6,0,0,1,8.56-3.81,10.08,10.08,0,0,1,8,3.31,12.67,12.67,0,0,1,2.93,8.72v2.57H419q.12,4.71,2.38,7.15a8.21,8.21,0,0,0,6.36,2.44,21.58,21.58,0,0,0,8.54-1.8v3.61a21.29,21.29,0,0,1-4.06,1.33A22.79,22.79,0,0,1,427.6,627.18Zm-1.1-24.34a6.62,6.62,0,0,0-5.14,2.1,9.75,9.75,0,0,0-2.26,5.81h14a9,9,0,0,0-1.7-5.87A6,6,0,0,0,426.5,602.84Zm30.3,24.34a11.61,11.61,0,0,1-4.77-1,9,9,0,0,1-3.63-3h-.29a37,37,0,0,1,.29,4.44v11h-4V599.94h3.29l.57,3.66h.19a9.41,9.41,0,0,1,3.64-3.18,11.06,11.06,0,0,1,4.76-1,9.85,9.85,0,0,1,8.21,3.64q2.89,3.63,2.9,10.2T465,623.53A9.91,9.91,0,0,1,456.8,627.18Zm-.59-24.29q-4.09,0-5.93,2.27t-1.88,7.23v.9q0,5.64,1.88,8.07t6,2.43a6.27,6.27,0,0,0,5.43-2.81,13.31,13.31,0,0,0,2-7.74q0-5-2-7.68A6.46,6.46,0,0,0,456.21,602.89ZM479,613a46.77,46.77,0,0,1,3.2-3.91l8.64-9.15h4.81l-10.84,11.4,11.6,15.35H491.5l-9.45-12.64L479,616.68v10h-4v-38h4v20.14c0,.89-.06,2.28-.19,4.15Zm21.91-20.32a2.66,2.66,0,0,1,.68-2,2.52,2.52,0,0,1,3.39,0,2.64,2.64,0,0,1,.71,2,2.67,2.67,0,0,1-.71,2,2.34,2.34,0,0,1-1.68.67,2.31,2.31,0,0,1-1.71-.67A2.7,2.7,0,0,1,500.91,592.68Zm4.39,34h-4.05V599.94h4.05Zm42.7,0v-17.4a7.23,7.23,0,0,0-1.36-4.8,5.28,5.28,0,0,0-4.25-1.6c-2.52,0-4.39.72-5.59,2.17s-1.81,3.68-1.81,6.69v14.94h-4v-17.4a7.23,7.23,0,0,0-1.37-4.8,5.3,5.3,0,0,0-4.27-1.6q-3.81,0-5.58,2.28T518,612.66v14H513.9V599.94h3.29l.66,3.66h.2a7.92,7.92,0,0,1,3.23-3.05,9.8,9.8,0,0,1,4.68-1.1q6.27,0,8.2,4.54h.2a8.46,8.46,0,0,1,3.46-3.32,10.71,10.71,0,0,1,5.18-1.22c3,0,5.29.78,6.8,2.33s2.26,4,2.26,7.46v17.45Zm23.7.49q-5.93,0-9.36-3.61t-3.43-10q0-6.46,3.18-10.27a10.6,10.6,0,0,1,8.56-3.81,10.08,10.08,0,0,1,8,3.31,12.67,12.67,0,0,1,2.93,8.72v2.57H563.11q.12,4.71,2.38,7.15a8.21,8.21,0,0,0,6.36,2.44,21.58,21.58,0,0,0,8.54-1.8v3.61a21.29,21.29,0,0,1-4.06,1.33A22.79,22.79,0,0,1,571.7,627.18Zm-1.1-24.34a6.62,6.62,0,0,0-5.14,2.1,9.68,9.68,0,0,0-2.25,5.81h14a9,9,0,0,0-1.7-5.87A6,6,0,0,0,570.6,602.84Zm35.11,16.55a6.74,6.74,0,0,1-2.78,5.77c-1.86,1.35-4.46,2-7.82,2-3.55,0-6.31-.56-8.3-1.68v-3.76a20.65,20.65,0,0,0,4.14,1.54,17.45,17.45,0,0,0,4.26.56,9.59,9.59,0,0,0,4.88-1,3.49,3.49,0,0,0,.36-5.76,21.58,21.58,0,0,0-5.29-2.62,28.93,28.93,0,0,1-5.31-2.43,7.19,7.19,0,0,1-2.34-2.36,6.18,6.18,0,0,1-.77-3.15,6,6,0,0,1,2.66-5.16,12.41,12.41,0,0,1,7.3-1.89,21.23,21.23,0,0,1,8.45,1.76l-1.44,3.29a19.35,19.35,0,0,0-7.3-1.66,8.45,8.45,0,0,0-4.35.9,2.8,2.8,0,0,0-1.46,2.49,3,3,0,0,0,.55,1.84,5.4,5.4,0,0,0,1.77,1.44,40,40,0,0,0,4.68,2c3.18,1.16,5.32,2.32,6.44,3.5A6.16,6.16,0,0,1,605.71,619.39ZM612,592.68a2.66,2.66,0,0,1,.68-2,2.41,2.41,0,0,1,1.71-.65,2.37,2.37,0,0,1,1.68.66,2.6,2.6,0,0,1,.71,2,2.64,2.64,0,0,1-.71,2,2.48,2.48,0,0,1-3.39,0A2.7,2.7,0,0,1,612,592.68Zm4.39,34H612.3V599.94h4.05ZM661,613.29q0,6.54-3.29,10.22t-9.11,3.67a12.07,12.07,0,0,1-6.37-1.68,11.15,11.15,0,0,1-4.3-4.84,16.81,16.81,0,0,1-1.51-7.37q0-6.54,3.27-10.19t9.08-3.65a11.33,11.33,0,0,1,8.93,3.73Q661,606.92,661,613.29Zm-20.38,0q0,5.13,2.05,7.81a8.14,8.14,0,0,0,12.07,0c1.38-1.79,2.06-4.4,2.06-7.83s-.68-6-2.06-7.75a8.27,8.27,0,0,0-12.1,0Q640.66,608.11,640.66,613.29Zm31.54,13.4h-4.05v-38h4.05Zm25,0-.8-3.8h-.2a11.19,11.19,0,0,1-4,3.4,12.24,12.24,0,0,1-5,.89,8.94,8.94,0,0,1-6.24-2,7.49,7.49,0,0,1-2.25-5.83q0-8.12,13-8.5l4.54-.15V609a6.8,6.8,0,0,0-1.35-4.65,5.59,5.59,0,0,0-4.34-1.5,17.64,17.64,0,0,0-7.57,2l-1.24-3.1a19,19,0,0,1,4.33-1.68,18.66,18.66,0,0,1,4.73-.61c3.19,0,5.55.7,7.09,2.12s2.31,3.69,2.31,6.81v18.26Zm-9.15-2.85a8.19,8.19,0,0,0,5.94-2.08A7.67,7.67,0,0,0,696.2,616v-2.42l-4.05.18c-3.22.11-5.55.61-7,1.5a4.53,4.53,0,0,0-2.14,4.14,4.16,4.16,0,0,0,1.34,3.34A5.47,5.47,0,0,0,688.1,623.84Zm32.71-24.39a16.21,16.21,0,0,1,3.19.29l-.56,3.76a14,14,0,0,0-2.93-.37,7.13,7.13,0,0,0-5.55,2.64,9.62,9.62,0,0,0-2.31,6.57v14.35h-4V599.94h3.34l.47,4.95h.19a11.81,11.81,0,0,1,3.59-4A8.11,8.11,0,0,1,720.81,599.45Zm24.64,27.24-.8-3.8h-.2a11.19,11.19,0,0,1-4,3.4,12.24,12.24,0,0,1-5,.89,8.9,8.9,0,0,1-6.23-2A7.46,7.46,0,0,1,727,619.3q0-8.12,13-8.5l4.54-.15V609a6.8,6.8,0,0,0-1.35-4.65,5.59,5.59,0,0,0-4.34-1.5,17.64,17.64,0,0,0-7.57,2l-1.24-3.1a19,19,0,0,1,4.33-1.68,18.66,18.66,0,0,1,4.73-.61c3.19,0,5.55.7,7.09,2.12s2.31,3.69,2.31,6.81v18.26Zm-9.15-2.85a8.19,8.19,0,0,0,5.94-2.08A7.67,7.67,0,0,0,744.4,616v-2.42l-4,.18q-4.83.16-7,1.5a4.53,4.53,0,0,0-2.14,4.14,4.16,4.16,0,0,0,1.34,3.34A5.47,5.47,0,0,0,736.3,623.84ZM760.8,613a46.77,46.77,0,0,1,3.2-3.91l8.64-9.15h4.81l-10.84,11.4,11.6,15.35H773.3l-9.45-12.64-3.05,2.63v10h-4v-38h4v20.14c0,.89-.06,2.28-.19,4.15Zm52.51,6.39a6.74,6.74,0,0,1-2.78,5.77c-1.86,1.35-4.46,2-7.82,2-3.55,0-6.31-.56-8.3-1.68v-3.76a20.65,20.65,0,0,0,4.14,1.54,17.45,17.45,0,0,0,4.26.56,9.59,9.59,0,0,0,4.88-1,3.49,3.49,0,0,0,.36-5.76,21.58,21.58,0,0,0-5.29-2.62,28.93,28.93,0,0,1-5.31-2.43,7.19,7.19,0,0,1-2.34-2.36,6.18,6.18,0,0,1-.77-3.15,6,6,0,0,1,2.66-5.16,12.41,12.41,0,0,1,7.3-1.89,21.23,21.23,0,0,1,8.45,1.76l-1.44,3.29a19.35,19.35,0,0,0-7.3-1.66,8.45,8.45,0,0,0-4.35.9,2.8,2.8,0,0,0-1.46,2.49,3,3,0,0,0,.55,1.84,5.4,5.4,0,0,0,1.77,1.44,40,40,0,0,0,4.68,2c3.18,1.16,5.32,2.32,6.44,3.5A6.16,6.16,0,0,1,813.31,619.39Zm10.64,7.3H819.9V599.94H824Zm26.91,0V609.38a7,7,0,0,0-1.49-4.88,6.08,6.08,0,0,0-4.66-1.61q-4.2,0-6.16,2.27t-1.95,7.5v14h-4.05V599.94h3.29l.66,3.66h.2a8.3,8.3,0,0,1,3.49-3.07,11.43,11.43,0,0,1,5-1.08q4.83,0,7.27,2.33t2.44,7.46v17.45Zm16.44,0h-4V599.94h4ZM888,603.09h-6.81v23.6h-4v-23.6h-4.79v-1.84l4.79-1.46V598.3q0-9.87,8.61-9.86a17.65,17.65,0,0,1,5,.85l-1.05,3.25a13.2,13.2,0,0,0-4-.76,3.89,3.89,0,0,0-3.39,1.53,8.43,8.43,0,0,0-1.1,4.89v1.74H888Zm8.94,23.6h-4.06v-38h4.06Zm25.05,0-.8-3.8H921a11.19,11.19,0,0,1-4,3.4,12.24,12.24,0,0,1-5,.89,8.9,8.9,0,0,1-6.23-2,7.46,7.46,0,0,1-2.26-5.83q0-8.12,13-8.5l4.54-.15V609a6.8,6.8,0,0,0-1.35-4.65,5.59,5.59,0,0,0-4.34-1.5,17.64,17.64,0,0,0-7.57,2l-1.24-3.1a19,19,0,0,1,4.33-1.68,18.66,18.66,0,0,1,4.73-.61c3.19,0,5.55.7,7.09,2.12s2.31,3.69,2.31,6.81v18.26Zm-9.15-2.85a8.19,8.19,0,0,0,5.94-2.08A7.67,7.67,0,0,0,920.9,616v-2.42l-4,.18q-4.83.16-7,1.5a4.53,4.53,0,0,0-2.14,4.14,4.16,4.16,0,0,0,1.34,3.34A5.47,5.47,0,0,0,912.8,623.84Zm38.81,2.85V609.38a7,7,0,0,0-1.49-4.88,6.08,6.08,0,0,0-4.66-1.61q-4.2,0-6.16,2.27t-1.95,7.5v14H933.3V599.94h3.29l.66,3.66h.2a8.3,8.3,0,0,1,3.49-3.07,11.43,11.43,0,0,1,5-1.08q4.83,0,7.27,2.33t2.44,7.46v17.45Zm30.6-3.59H982q-2.81,4.08-8.4,4.08a9.89,9.89,0,0,1-8.16-3.59q-2.92-3.58-2.92-10.2t2.93-10.28a9.85,9.85,0,0,1,8.15-3.66,9.73,9.73,0,0,1,8.35,3.95h.32l-.17-1.93-.1-1.88V588.71h4v38h-3.29Zm-8.1.69c2.76,0,4.77-.75,6-2.26s1.87-3.93,1.87-7.29v-.85q0-5.68-1.89-8.12c-1.26-1.62-3.28-2.43-6-2.43a6.22,6.22,0,0,0-5.46,2.77q-1.89,2.77-1.89,7.83c0,3.41.62,6,1.88,7.74A6.36,6.36,0,0,0,974.11,623.79Zm24.59,2.9h-4.05V599.94h4.05Zm20.81-27.24a16.21,16.21,0,0,1,3.19.29l-.56,3.76a14,14,0,0,0-2.93-.37,7.13,7.13,0,0,0-5.55,2.64,9.62,9.62,0,0,0-2.31,6.57v14.35h-4.05V599.94h3.34l.47,4.95h.19a11.91,11.91,0,0,1,3.59-4A8.11,8.11,0,0,1,1019.51,599.45Zm12.24,27.24h-4V599.94h4Zm12.65,0h-4.05v-38h4.05Zm12.65,0h-4V599.94h4Zm20.81-27.24a16.31,16.31,0,0,1,3.2.29l-.57,3.76a14,14,0,0,0-2.93-.37,7.13,7.13,0,0,0-5.55,2.64,9.62,9.62,0,0,0-2.31,6.57v14.35h-4V599.94H1069l.46,4.95h.19a11.91,11.91,0,0,1,3.59-4A8.11,8.11,0,0,1,1077.86,599.45Zm7.6,24.66a3.62,3.62,0,0,1,.75-2.48,2.71,2.71,0,0,1,2.14-.84,2.9,2.9,0,0,1,2.21.84,3.53,3.53,0,0,1,.79,2.48,3.42,3.42,0,0,1-.81,2.44,2.86,2.86,0,0,1-2.19.85,2.89,2.89,0,0,1-2.07-.77A3.35,3.35,0,0,1,1085.46,624.11Z" transform="translate(-36.5 -25.85)"/><text class="cls-1" transform="translate(0 690.85)">D) Tepkime sonucunda nötr bir tuz oluşur.</text><text class="cls-1" transform="translate(0 780.85)">E) Oluşan çözeltinin pH değeri 7’den küçüktür.</text></svg>