<svg id="katman_1" data-name="katman 1" xmlns="http://www.w3.org/2000/svg" viewBox="0 0 1236.8 770.4"><defs><style>.cls-1,.cls-2,.cls-5{font-size:50px;}.cls-1{font-family:OpenSans-Bold, Open Sans;font-weight:700;}.cls-2,.cls-5{font-family:OpenSans-Regular, Open Sans;}.cls-3{letter-spacing:-0.08em;}.cls-4,.cls-5{letter-spacing:0.46em;}.cls-6{letter-spacing:0.1em;}.cls-7{letter-spacing:0.08em;}.cls-8{letter-spacing:0.18em;}.cls-9{letter-spacing:-0.1em;}.cls-10{letter-spacing:0.34em;}</style></defs><title>tyt_1_07</title><text class="cls-1" transform="translate(0 42.85)">Saf bir sıvıya, </text><text class="cls-2" transform="translate(0 138.85)">I.<tspan class="cls-3" x="27.25" y="0">	</tspan><tspan class="cls-4" x="36" y="0">	</tspan><tspan x="72" y="0">Sıcaklığı</tspan></text><text class="cls-5" transform="translate(255.3 138.85)">	</text><text class="cls-2" transform="translate(268.3 138.85)">artırma</text><text class="cls-2" transform="translate(0 216.85)">II.</text><text class="cls-5" transform="translate(41.2 216.85)">	</text><text class="cls-2" transform="translate(54.2 216.85)"><tspan class="cls-6"> </tspan><tspan x="17.79" y="0">Uçucu</tspan></text><text class="cls-5" transform="translate(217.4 216.85)">	</text><text class="cls-2" transform="translate(230.4 216.85)">olmayan</text><text class="cls-5" transform="translate(431.25 216.85)">	</text><text class="cls-2" transform="translate(444.25 216.85)">bir</text><text class="cls-5" transform="translate(507.95 216.85)">	</text><text class="cls-2" transform="translate(520.95 216.85)">katı</text><text class="cls-5" transform="translate(605.3 216.85)">	</text><text class="cls-2" transform="translate(618.3 216.85)">ekleyerek</text><text class="cls-5" transform="translate(841.25 216.85)">	</text><text class="cls-2" transform="translate(854.25 216.85)">çözme</text><text class="cls-2" transform="translate(0 294.85)">III.<tspan class="cls-7" x="55.13" y="0">	</tspan><tspan x="72" y="0">Deneyi</tspan></text><text class="cls-5" transform="translate(233.1 294.85)">	</text><text class="cls-2" transform="translate(246.1 294.85)">aynı</text><text class="cls-5" transform="translate(342.45 294.85)">	</text><text class="cls-2" transform="translate(355.45 294.85)">sıcaklıkta</text><text class="cls-5" transform="translate(566.8 294.85)">	</text><text class="cls-2" transform="translate(579.8 294.85)">daha</text><text class="cls-5" transform="translate(696.75 294.85)">	</text><text class="cls-2" transform="translate(709.75 294.85)">yüksek</text><text class="cls-5" transform="translate(870.05 294.85)">	</text><text class="cls-2" transform="translate(883.05 294.85)">bir</text><text class="cls-5" transform="translate(946.75 294.85)">	</text><text class="cls-2" transform="translate(959.75 294.85)">rakımda</text><text class="cls-5" transform="translate(1151.8 294.85)">	</text><text class="cls-5" transform="translate(1164.8 294.85)"><tspan xml:space="preserve">		</tspan></text><text class="cls-2" transform="translate(0 354.85)"><tspan class="cls-4" xml:space="preserve">		</tspan><tspan x="72" y="0">gerçekleştirme</tspan></text><text class="cls-1" transform="translate(0 450.85)">koşullarından hangileri tek başına </text><text class="cls-1" transform="translate(867.33 450.85)">uygulanırsa</text><text class="cls-1" transform="translate(1161.08 450.85)"> </text><text class="cls-1" transform="translate(0 510.85)">hem buhar basıncı hem de kaynama noktası </text><text class="cls-1" transform="translate(0 570.85)">değişir?</text><text class="cls-2" transform="translate(0 666.85)">A)</text><text class="cls-5" transform="translate(46.45 666.85)">	</text><text class="cls-2" transform="translate(59.45 666.85)">Yalnız</text><text class="cls-5" transform="translate(194.65 666.85)">	</text><text class="cls-2" transform="translate(207.65 666.85)">I<tspan class="cls-8" x="13.94" y="0">	</tspan><tspan class="cls-4" x="36" y="0" xml:space="preserve">						</tspan><tspan x="252" y="0">B)</tspan></text><text class="cls-5" transform="translate(515.2 666.85)">	</text><text class="cls-2" transform="translate(528.2 666.85)">Yalnız</text><text class="cls-5" transform="translate(663.4 666.85)">	</text><text class="cls-2" transform="translate(676.4 666.85)">II<tspan class="cls-9" x="27.88" y="0">	</tspan><tspan class="cls-4" x="36" y="0" xml:space="preserve">		</tspan></text><text class="cls-5" transform="translate(792 666.85)"><tspan xml:space="preserve">		</tspan></text><text class="cls-2" transform="translate(818 666.85)"><tspan class="cls-4" xml:space="preserve">		</tspan><tspan x="72" y="0">C)</tspan></text><text class="cls-5" transform="translate(946.35 666.85)">	</text><text class="cls-2" transform="translate(959.35 666.85)">Yalnız</text><text class="cls-5" transform="translate(1094.55 666.85)">	</text><text class="cls-2" transform="translate(1107.55 666.85)">III</text><text class="cls-2" transform="translate(0 756.85)"><tspan class="cls-4" xml:space="preserve">							</tspan><tspan x="252" y="0">D)</tspan></text><text class="cls-5" transform="translate(303.25 756.85)">	</text><text class="cls-2" transform="translate(316.25 756.85)">I</text><text class="cls-5" transform="translate(330.2 756.85)">	</text><text class="cls-2" transform="translate(343.2 756.85)">ve</text><text class="cls-5" transform="translate(396.3 756.85)">	</text><text class="cls-2" transform="translate(409.3 756.85)">III<tspan class="cls-10" x="41.82" y="0">	</tspan><tspan class="cls-4" x="72" y="0" xml:space="preserve">							</tspan><tspan x="324" y="0">E)</tspan></text><text class="cls-5" transform="translate(762.6 756.85)">	</text><text class="cls-2" transform="translate(775.6 756.85)">II</text><text class="cls-5" transform="translate(803.5 756.85)">	</text><text class="cls-2" transform="translate(816.5 756.85)">ve</text><text class="cls-5" transform="translate(869.6 756.85)">	</text><text class="cls-2" transform="translate(882.6 756.85)">III</text></svg>